<svg width="22" height="22" viewBox="0 0 22 22" fill="none" xmlns="http://www.w3.org/2000/svg">
<path d="M11 0C17.0751 0 22 4.92487 22 11C22 17.0751 17.0751 22 11 22C4.92487 22 0 17.0751 0 11C0 4.92487 4.92487 0 11 0ZM2.05664 12C2.46749 15.7159 5.13946 18.748 8.66699 19.6924C7.12545 17.4163 6.21163 14.7618 6.0332 12H2.05664ZM15.9668 12C15.7884 14.762 14.8738 17.4162 13.332 19.6924C16.86 18.7483 19.5325 15.7162 19.9434 12H15.9668ZM8.03906 12C8.24251 14.7381 9.27534 17.3489 11 19.4834C12.7246 17.3489 13.7565 14.738 13.96 12H8.03906ZM8.66602 2.30664C5.13881 3.25125 2.46746 6.28435 2.05664 10H6.0332C6.21166 7.23812 7.12427 4.58281 8.66602 2.30664ZM11 2.51562C9.27507 4.65021 8.24348 7.26166 8.04004 10H13.9609C13.7575 7.26162 12.7249 4.65023 11 2.51562ZM13.333 2.30664C14.8749 4.58292 15.7883 7.23793 15.9668 10H19.9434C19.5325 6.28403 16.8607 3.25097 13.333 2.30664Z" fill="url(#paint0_linear_1_3489)"/>
<defs>
<linearGradient id="paint0_linear_1_3489" x1="11" y1="0" x2="11" y2="22" gradientUnits="userSpaceOnUse">
<stop stop-color="white" stop-opacity="0.9"/>
<stop offset="1" stop-color="white" stop-opacity="0.5"/>
</linearGradient>
</defs>
</svg>
