<svg width="32" height="23" viewBox="0 0 32 23" fill="none" xmlns="http://www.w3.org/2000/svg">
<path d="M31 10.0042H1C0.447715 10.0042 0 10.4519 0 11.0042C0 11.5564 0.447715 12.0042 1 12.0042H31C31.5523 12.0042 32 11.5564 32 11.0042C32 10.4519 31.5523 10.0042 31 10.0042Z" fill="white"/>
<path d="M31 0H1C0.447715 0 0 0.447715 0 1C0 1.55228 0.447715 2 1 2H31C31.5523 2 32 1.55228 32 1C32 0.447715 31.5523 0 31 0Z" fill="white"/>
<path d="M31 20.0083H1C0.447715 20.0083 0 20.456 0 21.0083C0 21.5606 0.447715 22.0083 1 22.0083H31C31.5523 22.0083 32 21.5606 32 21.0083C32 20.456 31.5523 20.0083 31 20.0083Z" fill="white"/>
</svg>
