<svg width="26" height="26" viewBox="0 0 26 26" fill="none" xmlns="http://www.w3.org/2000/svg">
<path d="M9 5C9 4.73478 8.89457 4.48051 8.70703 4.29297C8.54289 4.12883 8.32763 4.02757 8.09863 4.00488L8 4H5C4.73478 4 4.4805 4.10543 4.29297 4.29297C4.10543 4.4805 4 4.73478 4 5C4 9.50868 5.79137 13.8324 8.97949 17.0205C12.1676 20.2086 16.4913 22 21 22C21.2652 22 21.5195 21.8946 21.707 21.707C21.8946 21.5195 22 21.2652 22 21V18C22 17.7348 21.8946 17.4805 21.707 17.293C21.5195 17.1054 21.2652 17 21 17H18C17.8448 17 17.6916 17.036 17.5527 17.1055C17.4139 17.1749 17.2933 17.2762 17.2002 17.4004L17.1953 17.4072L16.8398 17.8701C16.5646 18.2317 16.1752 18.4894 15.7344 18.5996C15.2935 18.7097 14.828 18.6662 14.415 18.4766C14.4073 18.473 14.3992 18.4696 14.3916 18.4658C11.4157 17.0053 9.00728 14.6 7.54297 11.626L7.54102 11.6221C7.33868 11.2069 7.28622 10.7346 7.39258 10.2852C7.49903 9.83567 7.75789 9.4366 8.125 9.15625L8.13184 9.15137L8.59961 8.7998C8.72381 8.70666 8.8251 8.58612 8.89453 8.44727C8.96396 8.30841 9 8.15525 9 8V5ZM11 8C11 8.46573 10.8919 8.92523 10.6836 9.3418C10.4753 9.75836 10.1724 10.1209 9.7998 10.4004L9.33789 10.7451C10.6032 13.3136 12.6816 15.3917 15.249 16.6582L15.5996 16.2002L15.709 16.0635C15.9712 15.7533 16.2938 15.4986 16.6582 15.3164C17.0748 15.1081 17.5343 15 18 15H21C21.7957 15 22.5585 15.3163 23.1211 15.8789C23.6837 16.4415 24 17.2043 24 18V21C24 21.7957 23.6837 22.5585 23.1211 23.1211C22.5585 23.6837 21.7957 24 21 24C15.9609 24 11.1286 21.9978 7.56543 18.4346C4.00224 14.8714 2 10.0391 2 5C2 4.20435 2.3163 3.44152 2.87891 2.87891C3.44152 2.3163 4.20435 2 5 2H8C8.79565 2 9.55848 2.3163 10.1211 2.87891C10.6837 3.44151 11 4.20435 11 5V8Z" fill="url(#paint0_linear_1_3501)"/>
<defs>
<linearGradient id="paint0_linear_1_3501" x1="13" y1="2" x2="13" y2="24" gradientUnits="userSpaceOnUse">
<stop stop-color="white" stop-opacity="0.9"/>
<stop offset="1" stop-color="white" stop-opacity="0.5"/>
</linearGradient>
</defs>
</svg>
