<svg width="253" height="26" viewBox="0 0 253 26" fill="none" xmlns="http://www.w3.org/2000/svg">
<path d="M124.892 1.001C125.953 1.001 126.97 1.42277 127.72 2.17289C128.47 2.92291 128.892 3.93948 128.892 5.00009V6.33313H132.254L132.552 6.35071C132.848 6.38446 133.138 6.46784 133.408 6.59778C133.767 6.77114 134.083 7.02424 134.333 7.33608L138.972 13.134L139.106 13.3167C139.399 13.7534 139.558 14.2688 139.559 14.7981V19.6664C139.559 20.3736 139.278 21.0521 138.778 21.5522C138.278 22.0521 137.599 22.3334 136.892 22.3334H135.331C134.781 23.8868 133.301 24.9995 131.559 24.9995C129.818 24.9995 128.337 23.8868 127.788 22.3334H121.996C121.447 23.8867 119.966 24.9995 118.225 24.9995C116.484 24.9993 115.004 23.8866 114.454 22.3334H112.892C112.185 22.3334 111.506 22.0522 111.006 21.5522C110.506 21.0521 110.225 20.3735 110.225 19.6664V5.00009C110.225 3.9396 110.647 2.92289 111.397 2.17289C112.147 1.42287 113.164 1.00111 114.225 1.001H124.892ZM118.225 19.6664C117.489 19.6666 116.892 20.2642 116.892 21.0004C116.892 21.7365 117.489 22.3332 118.225 22.3334C118.961 22.3334 119.559 21.7366 119.559 21.0004C119.559 20.264 118.961 19.6664 118.225 19.6664ZM131.559 19.6664C130.823 19.6664 130.226 20.264 130.226 21.0004C130.226 21.7366 130.823 22.3334 131.559 22.3334C132.295 22.3334 132.892 21.7366 132.892 21.0004C132.892 20.2641 132.295 19.6664 131.559 19.6664ZM114.225 3.66706C113.871 3.66717 113.532 3.80775 113.282 4.05769C113.032 4.30765 112.892 4.64662 112.892 5.00009V19.6664H114.454C115.004 18.1134 116.484 17.0005 118.225 17.0003C119.967 17.0003 121.448 18.1136 121.997 19.6674H126.225V5.00009C126.225 4.64662 126.084 4.30765 125.834 4.05769C125.616 3.83905 125.329 3.70418 125.024 3.6739L124.892 3.66706H114.225ZM128.892 18.0189C129.6 17.3854 130.534 17.0003 131.559 17.0003C133.301 17.0004 134.781 18.1132 135.331 19.6664H136.892V14.802L136.891 14.8011L132.252 9.00115L132.251 9.00017H128.892V18.0189Z" fill="url(#paint0_linear_1_6168)"/>
<defs>
<linearGradient id="paint0_linear_1_6168" x1="124.892" y1="1.001" x2="124.892" y2="24.9995" gradientUnits="userSpaceOnUse">
<stop stop-color="white" stop-opacity="0.9"/>
<stop offset="1" stop-color="white" stop-opacity="0.5"/>
</linearGradient>
</defs>
</svg>
