<svg width="253" height="26" viewBox="0 0 253 26" fill="none" xmlns="http://www.w3.org/2000/svg">
<path d="M126.129 22.9413C126.974 22.9416 127.659 23.6261 127.659 24.4707C127.659 25.3152 126.974 25.9998 126.129 26H126.114C125.269 25.9999 124.584 25.3152 124.584 24.4707C124.584 23.6261 125.269 22.9415 126.114 22.9413H126.129ZM126.114 15.2928C128.516 15.2928 130.822 16.2346 132.538 17.9159C133.141 18.5071 133.15 19.4758 132.559 20.079C131.968 20.6821 130.999 20.6925 130.396 20.1015C129.252 18.9805 127.715 18.3524 126.114 18.3524C124.512 18.3524 122.975 18.9806 121.831 20.1015C121.228 20.6923 120.26 20.6818 119.669 20.079C119.078 19.4758 119.087 18.5071 119.69 17.9159C121.405 16.2345 123.712 15.2928 126.114 15.2928ZM126.937 7.66665C131.041 7.86756 134.942 9.56695 137.89 12.4568C138.493 13.0481 138.503 14.0168 137.912 14.6199C137.32 15.2228 136.352 15.2316 135.749 14.6404C133.336 12.2763 130.145 10.8868 126.788 10.7224L126.114 10.7067C122.511 10.7068 119.052 12.1187 116.479 14.6404C115.876 15.2316 114.907 15.2229 114.316 14.6199C113.724 14.0168 113.734 13.0481 114.337 12.4568C117.482 9.37433 121.71 7.64714 126.114 7.64712L126.937 7.66665ZM126.114 0.00048829C132.133 0.00048829 137.942 2.21831 142.428 6.23107C143.058 6.79423 143.111 7.76175 142.548 8.39127C141.984 9.02048 141.018 9.07519 140.388 8.51237C136.463 5.00109 131.381 3.05914 126.114 3.05914C120.847 3.05919 115.766 5.00122 111.84 8.51237C111.21 9.0754 110.243 9.02068 109.68 8.39127C109.117 7.76175 109.17 6.79421 109.799 6.23107C114.285 2.21823 120.094 0.000537467 126.114 0.00048829Z" fill="url(#paint0_linear_1_6180)"/>
<defs>
<linearGradient id="paint0_linear_1_6180" x1="126.114" y1="0.00048829" x2="126.114" y2="26" gradientUnits="userSpaceOnUse">
<stop stop-color="white" stop-opacity="0.9"/>
<stop offset="1" stop-color="white" stop-opacity="0.5"/>
</linearGradient>
</defs>
</svg>
