<svg width="253" height="26" viewBox="0 0 253 26" fill="none" xmlns="http://www.w3.org/2000/svg">
<path d="M124.873 0C125.557 0 126.111 0.5545 126.111 1.23828L126.296 1.24219C127.214 1.28787 128.084 1.6733 128.737 2.32617C129.434 3.02268 129.825 3.96714 129.825 4.95215V9.9043C129.825 12.2027 128.913 14.4079 127.288 16.0332C125.983 17.3384 124.303 18.1824 122.502 18.4648C122.729 19.6858 123.32 20.8194 124.211 21.71C125.372 22.8709 126.946 23.5234 128.588 23.5234C130.229 23.5233 131.803 22.8707 132.964 21.71C134.052 20.6217 134.695 19.1706 134.771 17.6406L134.778 17.333V14.6445C133.336 14.1346 132.302 12.7598 132.302 11.1426C132.302 9.09149 133.965 7.42891 136.016 7.42871C138.067 7.42871 139.73 9.09136 139.73 11.1426C139.73 12.7597 138.696 14.1346 137.254 14.6445V17.333C137.254 19.6315 136.341 21.8366 134.716 23.4619C133.091 25.0871 130.886 25.9999 128.588 26C126.289 26 124.084 25.0872 122.459 23.4619C121.109 22.112 120.252 20.3623 120 18.4912C118.129 18.2389 116.38 17.3828 115.03 16.0332C113.506 14.5094 112.609 12.4762 112.503 10.334L112.492 9.9043V4.95215C112.492 3.96719 112.884 3.02267 113.58 2.32617C114.233 1.6731 115.104 1.28772 116.022 1.24219L116.206 1.23828C116.206 0.554578 116.761 0.000125613 117.444 0C118.128 0 118.683 0.5545 118.683 1.23828V3.71387C118.683 4.39765 118.128 4.95215 117.444 4.95215C116.761 4.95202 116.206 4.39757 116.206 3.71387C115.878 3.71398 115.563 3.84506 115.331 4.07715C115.099 4.30927 114.969 4.62391 114.969 4.95215V9.9043L114.976 10.2119C115.052 11.7419 115.694 13.1929 116.782 14.2812C117.943 15.4422 119.517 16.0957 121.159 16.0957C122.801 16.0956 124.375 15.4421 125.536 14.2812C126.624 13.193 127.266 11.7417 127.342 10.2119L127.35 9.9043V4.95215C127.35 4.62387 127.218 4.30928 126.986 4.07715C126.783 3.87399 126.517 3.74883 126.233 3.7207L126.111 3.71387L126.104 3.84082C126.041 4.46515 125.514 4.95215 124.873 4.95215C124.189 4.9521 123.635 4.39762 123.635 3.71387V1.23828C123.635 0.554531 124.189 5.05068e-05 124.873 0ZM136.016 9.9043C135.332 9.9045 134.778 10.459 134.778 11.1426C134.778 11.8262 135.332 12.3807 136.016 12.3809C136.699 12.3809 137.254 11.8264 137.254 11.1426C137.254 10.4589 136.699 9.9043 136.016 9.9043Z" fill="url(#paint0_linear_1_6127)"/>
<defs>
<linearGradient id="paint0_linear_1_6127" x1="126.111" y1="0" x2="126.111" y2="26" gradientUnits="userSpaceOnUse">
<stop stop-color="white" stop-opacity="0.9"/>
<stop offset="1" stop-color="white" stop-opacity="0.5"/>
</linearGradient>
</defs>
</svg>
