<svg width="253" height="26" viewBox="0 0 253 26" fill="none" xmlns="http://www.w3.org/2000/svg">
<path d="M132.018 0.000488272C132.671 0.000536672 133.2 0.529449 133.2 1.18211V2.36373L133.382 2.36861C135.255 2.46361 136.745 4.01192 136.745 5.90858H137.927C138.58 5.90868 139.109 6.43855 139.109 7.09118C139.109 7.74362 138.58 8.2727 137.927 8.27279H136.745V11.8176H137.927C138.58 11.8177 139.109 12.3476 139.109 13.0002C139.108 13.6526 138.58 14.1818 137.927 14.1819H136.745V17.7267H137.927C138.58 17.7268 139.109 18.2559 139.109 18.9083C139.109 19.561 138.58 20.0908 137.927 20.0909H136.745L136.741 20.2726C136.646 22.146 135.097 23.6358 133.2 23.6358V24.8174C133.2 25.4701 132.671 26 132.018 26C131.365 26 130.836 25.4701 130.836 24.8174V23.6358H127.291V24.8174C127.291 25.4701 126.762 26 126.109 26C125.456 26 124.927 25.4701 124.927 24.8174V23.6358H121.382V24.8174C121.382 25.4701 120.853 26 120.2 26C119.547 26 119.018 25.4701 119.018 24.8174V23.6358L118.836 23.6309C117.023 23.539 115.569 22.0856 115.477 20.2726L115.472 20.0909H114.291C113.638 20.0908 113.109 19.561 113.109 18.9083C113.109 18.2559 113.638 17.7268 114.291 17.7267H115.472V14.1819H114.291C113.638 14.1818 113.109 13.6526 113.109 13.0002C113.109 12.3476 113.638 11.8177 114.291 11.8176H115.472V8.27279H114.291C113.638 8.2727 113.109 7.74362 113.109 7.09118C113.109 6.43855 113.638 5.90868 114.291 5.90858H115.472C115.473 4.01192 116.963 2.46361 118.836 2.36861L119.018 2.36373V1.18211C119.018 0.529448 119.547 0.000536285 120.2 0.000488272C120.853 0.000488272 121.382 0.529419 121.382 1.18211V2.36373H124.927V1.18211C124.927 0.529419 125.456 0.000488337 126.109 0.000488272C126.762 0.000488272 127.291 0.529419 127.291 1.18211V2.36373H130.836V1.18211C130.836 0.529419 131.365 0.000488272 132.018 0.000488272ZM119.018 4.72696C118.366 4.72696 117.837 5.25608 117.837 5.90858V20.0909C117.837 20.7434 118.366 21.2725 119.018 21.2725H133.2C133.852 21.2725 134.381 20.7434 134.381 20.0909V5.90858C134.381 5.25608 133.852 4.72696 133.2 4.72696H119.018ZM129.655 7.09118C130.96 7.09142 132.018 8.14918 132.018 9.45441V16.5451C132.018 17.8503 130.96 18.9081 129.655 18.9083H122.563C121.258 18.9081 120.2 17.8503 120.2 16.5451V9.45441C120.2 8.14918 121.258 7.09142 122.563 7.09118H129.655ZM122.563 16.5451H129.655V9.45441H122.563V16.5451Z" fill="url(#paint0_linear_1_6148)"/>
<defs>
<linearGradient id="paint0_linear_1_6148" x1="126.109" y1="-0.000488272" x2="126.109" y2="26" gradientUnits="userSpaceOnUse">
<stop stop-color="white" stop-opacity="0.9"/>
<stop offset="1" stop-color="white" stop-opacity="0.5"/>
</linearGradient>
</defs>
</svg>
