<svg width="22" height="18" viewBox="0 0 22 18" fill="none" xmlns="http://www.w3.org/2000/svg">
<path d="M19 0C20.6569 0 22 1.34315 22 3V15C22 16.6569 20.6569 18 19 18H3C1.34315 18 0 16.6569 0 15V3C0 1.34315 1.34315 0 3 0H19ZM2 15C2 15.5523 2.44772 16 3 16H19C19.5523 16 20 15.5523 20 15V5.82227L12.5459 10.5703C12.5346 10.5775 12.5233 10.585 12.5117 10.5918C12.0542 10.8575 11.534 10.997 11.0049 10.9971C10.4758 10.997 9.95558 10.8575 9.49805 10.5918C9.48645 10.5851 9.4742 10.5775 9.46289 10.5703L2 5.82129V15ZM3 2C2.44772 2 2 2.44772 2 3V3.4502L10.5078 8.86523C10.659 8.95176 10.8306 8.99703 11.0049 8.99707C11.1787 8.997 11.3491 8.95138 11.5 8.86523L20 3.4502V3C20 2.44772 19.5523 2 19 2H3Z" fill="url(#paint0_linear_1_3496)"/>
<defs>
<linearGradient id="paint0_linear_1_3496" x1="11" y1="0" x2="11" y2="18" gradientUnits="userSpaceOnUse">
<stop stop-color="white" stop-opacity="0.9"/>
<stop offset="1" stop-color="white" stop-opacity="0.5"/>
</linearGradient>
</defs>
</svg>
