<svg width="22" height="22" viewBox="0 0 22 22" fill="none" xmlns="http://www.w3.org/2000/svg">
<path d="M17.5507 0.131106C18.1491 -0.0374934 18.7821 -0.0434442 19.3837 0.113528C19.9855 0.270657 20.5348 0.585889 20.9746 1.02566C21.4144 1.46564 21.7297 2.0155 21.8867 2.61749C22.0436 3.21935 22.0371 3.85292 21.8682 4.45151C21.6991 5.04994 21.3731 5.5929 20.9248 6.02382C20.4764 6.45461 19.921 6.75862 19.3163 6.90372H19.3154L20.999 8.5854L21.1152 8.70747C21.3778 8.99731 21.5892 9.33078 21.7393 9.69284C21.9108 10.107 21.999 10.5513 21.999 10.9995C21.999 11.4478 21.9108 11.892 21.7393 12.3062C21.5677 12.7203 21.316 13.0966 20.999 13.4136L19.3163 15.0973L19.3154 15.0963C19.0642 15.3475 18.7508 15.5279 18.4071 15.6178C18.0633 15.7075 17.7013 15.7044 17.3593 15.608C17.0171 15.5115 16.7062 15.3253 16.4598 15.0689C16.2134 14.8125 16.0397 14.4939 15.9569 14.148V14.147C15.8944 13.8887 15.7642 13.6511 15.5799 13.4595C15.3953 13.2676 15.1624 13.1286 14.9061 13.0562C14.6495 12.9839 14.3778 12.9811 14.1199 13.0484C13.8621 13.1157 13.6267 13.2506 13.4383 13.439C13.2499 13.6275 13.115 13.8629 13.0477 14.1207C12.9804 14.3786 12.9831 14.6503 13.0555 14.9068C13.1279 15.1634 13.2676 15.3959 13.4598 15.5807C13.652 15.7654 13.89 15.8964 14.1492 15.9586H14.1483C14.4939 16.0414 14.8118 16.2144 15.0682 16.4606C15.3246 16.7069 15.5117 17.0178 15.6083 17.36C15.7048 17.7022 15.7079 18.0648 15.618 18.4089C15.5393 18.7099 15.3916 18.9882 15.1873 19.2214L15.0965 19.3181L13.4139 20.9988C13.097 21.3157 12.7204 21.5674 12.3064 21.739C11.8923 21.9106 11.448 21.9988 10.9998 21.9988C10.5514 21.9988 10.1073 21.9106 9.69309 21.739C9.27898 21.5674 8.90258 21.3157 8.58564 20.9988L6.90201 19.3171C6.75665 19.9218 6.45225 20.4772 6.02113 20.9255C5.58992 21.3737 5.0465 21.6992 4.44785 21.8679C3.84951 22.0364 3.21727 22.0424 2.61578 21.8855C2.01384 21.7283 1.46378 21.4133 1.02395 20.9734C0.584344 20.5335 0.269781 19.9842 0.112795 19.3825C-0.0440338 18.7808 -0.037466 18.1479 0.131351 17.5495C0.300306 16.9508 0.625299 16.4073 1.07375 15.9762C1.52228 15.5451 2.07823 15.2414 2.68317 15.0963L1.00051 13.4136C0.683504 13.0966 0.431831 12.7204 0.26026 12.3062C0.0886934 11.892 0.000488292 11.4478 0.000488292 10.9995C0.000525835 10.5513 0.0887242 10.107 0.26026 9.69284C0.431827 9.27885 0.683623 8.90227 1.00051 8.5854L2.68317 6.90372L2.77985 6.8129C3.01306 6.60856 3.2912 6.4609 3.59236 6.38222C3.93633 6.29245 4.29809 6.29552 4.64024 6.39199C4.98254 6.48858 5.29327 6.67555 5.53967 6.93204C5.78555 7.18815 5.95878 7.5048 6.04164 7.85003L6.10121 8.04046C6.17272 8.22545 6.28123 8.39556 6.41958 8.5395C6.60428 8.73145 6.83704 8.87147 7.09342 8.9438C7.34997 9.01609 7.62167 9.01795 7.87957 8.95064C8.13744 8.88325 8.37279 8.7485 8.56123 8.56C8.7496 8.37153 8.88457 8.13618 8.95186 7.87835C9.01903 7.62048 9.01641 7.34866 8.94405 7.0922C8.87162 6.83589 8.73174 6.60394 8.53974 6.41933C8.34771 6.23476 8.11021 6.10366 7.85125 6.04139V6.04237C7.50538 5.95957 7.1868 5.78581 6.93033 5.53943C6.67391 5.29306 6.48785 4.98222 6.39126 4.64C6.2947 4.29777 6.2917 3.9352 6.38149 3.59114C6.47138 3.24726 6.65157 2.9332 6.90299 2.68194L8.58564 1.00027L8.70674 0.884053C8.99677 0.621228 9.33071 0.410134 9.69309 0.260016C10.1073 0.0884614 10.5515 0.000245687 10.9998 0.000244146C11.448 0.000262051 11.8923 0.0884609 12.3064 0.260016C12.7205 0.431586 13.0969 0.683307 13.4139 1.00027L15.0975 2.6839V2.68292C15.2428 2.07801 15.5471 1.52288 15.9784 1.07449C16.4095 0.626248 16.9521 0.299881 17.5507 0.131106ZM18.8788 2.04912C18.621 1.98185 18.3492 1.98463 18.0927 2.05693C17.8365 2.12925 17.6044 2.26848 17.4198 2.46026C17.235 2.65238 17.1042 2.89056 17.0419 3.14973C16.959 3.49535 16.7861 3.81335 16.5399 4.06967C16.2936 4.32609 15.9827 4.51213 15.6405 4.60874C15.2982 4.7053 14.9357 4.70831 14.5916 4.61851C14.2477 4.52864 13.9337 4.34847 13.6824 4.09701L11.9998 2.41436C11.8685 2.28307 11.7123 2.17877 11.5408 2.10771C11.3693 2.03669 11.1854 2.00031 10.9998 2.00029C10.8142 2.00029 10.6302 2.03673 10.4587 2.10771C10.2872 2.17876 10.131 2.28311 9.99973 2.41436L8.3161 4.09701H8.31708C8.92185 4.24213 9.47707 4.54598 9.92551 4.97692C10.374 5.408 10.6999 5.95151 10.8689 6.55019C11.0376 7.14844 11.0441 7.78076 10.8874 8.38227C10.7305 8.98422 10.4151 9.53413 9.97532 9.9741C9.53552 10.414 8.98631 10.7291 8.38446 10.8862C7.78263 11.0433 7.14911 11.0374 6.55044 10.8686C5.95211 10.6999 5.40916 10.3742 4.97814 9.92625C4.54707 9.47791 4.24352 8.92158 4.09824 8.31683V8.31586L2.4146 9.99949C2.28338 10.1307 2.17901 10.2871 2.10796 10.4585C2.03694 10.6299 2.00057 10.8139 2.00053 10.9995C2.00053 11.1851 2.03695 11.369 2.10796 11.5405C2.17902 11.7121 2.2833 11.8682 2.4146 11.9995L4.09726 13.6812L4.18808 13.7779C4.39229 14.011 4.5391 14.2894 4.61778 14.5904C4.70765 14.9345 4.70457 15.297 4.60801 15.6393C4.51142 15.9814 4.32531 16.2924 4.06894 16.5387C3.81256 16.7849 3.49467 16.9588 3.149 17.0416C2.89007 17.1039 2.65253 17.2341 2.4605 17.4186C2.26827 17.6034 2.12862 17.8358 2.0562 18.0924C1.98384 18.349 1.98113 18.6207 2.04839 18.8786C2.11573 19.1363 2.25071 19.3719 2.43902 19.5602C2.62743 19.7485 2.86293 19.8836 3.12067 19.9509C3.3785 20.0181 3.65036 20.0163 3.90682 19.944C4.16303 19.8717 4.39506 19.7315 4.57969 19.5397C4.76414 19.348 4.89423 19.1099 4.95665 18.8512L4.99181 18.7223C5.08378 18.4267 5.24433 18.1556 5.45959 17.9313C5.70592 17.6749 6.01684 17.4879 6.35903 17.3913C6.70126 17.2947 7.06383 17.2917 7.40788 17.3815C7.75187 17.4714 8.06579 17.6514 8.31708 17.903L9.99973 19.5856C10.131 19.7169 10.2873 19.8213 10.4587 19.8923C10.6302 19.9633 10.8142 19.9997 10.9998 19.9997C11.1854 19.9997 11.3693 19.9633 11.5408 19.8923C11.7123 19.8213 11.8685 19.7169 11.9998 19.5856L13.6824 17.903L13.4578 17.8415C12.9402 17.6802 12.4654 17.4002 12.073 17.0231C11.6248 16.5922 11.2996 16.0492 11.1306 15.4508C10.9617 14.8521 10.9552 14.2187 11.1121 13.6168C11.269 13.0148 11.5834 12.4649 12.0232 12.0249C12.463 11.585 13.0132 11.27 13.615 11.1128C14.2166 10.9558 14.8497 10.9618 15.4481 11.1304C16.0468 11.2992 16.5902 11.6254 17.0214 12.0738C17.3985 12.466 17.6783 12.9401 17.8398 13.4576L17.9023 13.6822L19.5849 11.9995C19.7162 11.8682 19.8205 11.7121 19.8916 11.5405C19.9625 11.3691 19.999 11.1851 19.999 10.9995C19.9989 10.814 19.9625 10.6299 19.8916 10.4585C19.8383 10.33 19.7656 10.2102 19.6777 10.103L19.5849 9.99949L17.9032 8.31781C17.6516 8.06648 17.4716 7.75267 17.3817 7.40861C17.292 7.06465 17.295 6.70289 17.3915 6.36074C17.4881 6.01845 17.6741 5.70769 17.9306 5.4613C18.1868 5.21517 18.5041 5.04222 18.8495 4.95934L19.04 4.89977C19.225 4.82831 19.395 4.71973 19.539 4.5814C19.7311 4.39675 19.8709 4.16395 19.9433 3.90756C20.0157 3.65106 20.0184 3.37929 19.9511 3.12141C19.8838 2.86358 19.7489 2.62821 19.5605 2.43975C19.3721 2.25133 19.1366 2.11648 18.8788 2.04912Z" fill="url(#paint0_linear_1_6085)"/>
<defs>
<linearGradient id="paint0_linear_1_6085" x1="10.9995" y1="0.000244146" x2="10.9995" y2="21.9992" gradientUnits="userSpaceOnUse">
<stop stop-color="white" stop-opacity="0.9"/>
<stop offset="1" stop-color="white" stop-opacity="0.5"/>
</linearGradient>
</defs>
</svg>
