<svg width="27" height="26" viewBox="0 0 27 26" fill="none" xmlns="http://www.w3.org/2000/svg">
<path d="M8.23242 21.2617C9.54074 21.2617 10.6015 22.3226 10.6016 23.6309C10.6016 24.9392 9.54078 26 8.23242 26C6.9241 26 5.86328 24.9392 5.86328 23.6309C5.86336 22.3226 6.92414 21.2618 8.23242 21.2617ZM21.2617 21.2617C22.57 21.2617 23.6308 22.3226 23.6309 23.6309C23.6309 24.9392 22.5701 26 21.2617 26C19.9535 25.9998 18.8926 24.9391 18.8926 23.6309C18.8927 22.3227 19.9535 21.2619 21.2617 21.2617ZM3.65723 0.00488281C4.17062 0.0498766 4.60112 0.424835 4.71094 0.936523L5.7793 5.92285H24.9219C25.2809 5.92287 25.6209 6.08527 25.8457 6.36523C26.0705 6.64542 26.1569 7.01359 26.0791 7.36426L24.124 16.1641L24.123 16.1631C23.949 16.9525 23.5125 17.66 22.8828 18.167C22.2529 18.6741 21.4679 18.9508 20.6592 18.9521H9.07324V18.9512C8.2561 18.9633 7.45907 18.6944 6.81738 18.1875C6.16898 17.6752 5.72027 16.9525 5.54688 16.1445L3.66992 7.3877C3.66393 7.36305 3.65872 7.33773 3.6543 7.3125L2.5957 2.36914H1.18457C0.530413 2.36914 3.81383e-05 1.83872 0 1.18457C0 0.530389 0.530389 0 1.18457 0H3.55371L3.65723 0.00488281ZM7.8623 15.6475C7.92013 15.9167 8.071 16.1574 8.28711 16.3281C8.50323 16.4987 8.77159 16.5891 9.04688 16.583H20.6562C20.9254 16.5825 21.1867 16.49 21.3965 16.3213C21.6062 16.1523 21.7526 15.9163 21.8105 15.6533L21.8115 15.6504L23.4443 8.29102H6.28711L7.8623 15.6475Z" fill="url(#paint0_linear_1_6139)"/>
<defs>
<linearGradient id="paint0_linear_1_6139" x1="13.0536" y1="0" x2="13.0536" y2="26" gradientUnits="userSpaceOnUse">
<stop stop-color="white" stop-opacity="0.9"/>
<stop offset="1" stop-color="white" stop-opacity="0.5"/>
</linearGradient>
</defs>
</svg>
