<svg width="22" height="20" viewBox="0 0 22 20" fill="none" xmlns="http://www.w3.org/2000/svg">
<path d="M10.1957 0.00708068C11.6603 -0.0611748 13.1054 0.367867 14.2957 1.22398C15.2767 1.92979 16.0373 2.8925 16.499 3.99863H17.9991C19.0598 3.9988 20.0774 4.42055 20.8275 5.17061C21.5774 5.92076 21.9994 6.93822 21.9994 7.99897C21.9993 8.55101 21.5513 8.99872 20.9994 8.99906C20.4471 8.99906 19.9994 8.55122 19.9993 7.99897C19.9992 7.4687 19.7881 6.95984 19.4133 6.58479C19.0383 6.20983 18.5293 5.99897 17.9991 5.9988H15.7919C15.3449 5.9988 14.9522 5.70203 14.8299 5.27218C14.5523 4.29565 13.9526 3.44113 13.1286 2.84814C12.3043 2.25522 11.3027 1.95802 10.2885 2.0053C9.27433 2.05274 8.30555 2.44184 7.5402 3.10891C7.20608 3.40018 6.91818 3.73679 6.68563 4.10704C7.57949 3.9583 8.49649 3.96209 9.3968 4.12169C10.8575 4.38071 12.2176 5.04075 13.3249 6.0281C14.2431 6.84698 14.957 7.86479 15.4159 8.99906H16.499C17.2211 8.99909 17.9364 9.14172 18.6036 9.41804C19.2709 9.69446 19.8783 10.0998 20.3889 10.6105C20.8994 11.1212 21.3041 11.7278 21.5805 12.3949C21.8568 13.0621 21.9994 13.7773 21.9994 14.4995C21.9994 15.2217 21.8568 15.937 21.5805 16.6042C21.3041 17.2713 20.8995 17.8779 20.3889 18.3885C19.8782 18.8993 19.2709 19.3046 18.6036 19.581C17.9364 19.8573 17.2211 20 16.499 20H7.99824C6.51472 19.9996 5.0601 19.5867 3.79769 18.8075C2.53529 18.0282 1.51445 16.9126 0.849194 15.5865C0.183975 14.2604 -0.0993631 12.775 0.0307643 11.2971C0.160965 9.81945 0.699055 8.40697 1.58558 7.21766C2.27953 6.28689 3.166 5.52148 4.17956 4.9704C4.49599 3.66559 5.20926 2.487 6.22563 1.60097C7.33111 0.637405 8.73081 0.0755204 10.1957 0.00708068ZM9.04716 6.09061C7.95164 5.89649 6.82339 6.01079 5.78907 6.42071C4.75461 6.83073 3.85435 7.52097 3.18924 8.41307C2.52431 9.3051 2.12074 10.3646 2.02312 11.4729C1.92555 12.5813 2.13756 13.6954 2.63646 14.69C3.1354 15.6845 3.90178 16.5208 4.84856 17.1052C5.79522 17.6895 6.8858 17.9995 7.99824 17.9998H16.499C16.9586 17.9998 17.4143 17.9091 17.8389 17.7332C18.2634 17.5573 18.6489 17.2992 18.9738 16.9744C19.2987 16.6495 19.5567 16.2639 19.7326 15.8395C19.9085 15.4149 19.9992 14.9591 19.9993 14.4995C19.9993 14.04 19.9085 13.5842 19.7326 13.1596C19.5568 12.7352 19.2986 12.3496 18.9738 12.0247C18.6489 11.6999 18.2633 11.4417 17.8389 11.2659C17.4143 11.09 16.9586 10.9993 16.499 10.9992H14.7088C14.2668 10.9991 13.8773 10.7087 13.7507 10.2853C13.4328 9.21901 12.8241 8.26101 11.9937 7.52042C11.1633 6.78002 10.1426 6.28485 9.04716 6.09061Z" fill="url(#paint0_linear_1_6061)"/>
<defs>
<linearGradient id="paint0_linear_1_6061" x1="10.9993" y1="0.000244161" x2="10.9993" y2="19.9993" gradientUnits="userSpaceOnUse">
<stop stop-color="white" stop-opacity="0.9"/>
<stop offset="1" stop-color="white" stop-opacity="0.5"/>
</linearGradient>
</defs>
</svg>
