<svg width="29" height="21" viewBox="0 0 29 21" fill="none" xmlns="http://www.w3.org/2000/svg">
<path d="M24.9375 0C27.1121 0 28.875 1.76288 28.875 3.9375V17.0625C28.875 19.2371 27.1121 21 24.9375 21H3.9375C1.76288 21 0 19.2371 0 17.0625V3.9375C0 1.76288 1.76288 0 3.9375 0H24.9375ZM2.625 9.1875V17.0625C2.625 17.7874 3.21263 18.375 3.9375 18.375H24.9375C25.6624 18.375 26.25 17.7874 26.25 17.0625V9.1875H2.625ZM3.9375 2.625C3.21263 2.625 2.625 3.21263 2.625 3.9375V6.5625H26.25V3.9375C26.25 3.21263 25.6624 2.625 24.9375 2.625H3.9375Z" fill="url(#paint0_linear_1_6120)"/>
<defs>
<linearGradient id="paint0_linear_1_6120" x1="14.4375" y1="0" x2="14.4375" y2="21" gradientUnits="userSpaceOnUse">
<stop stop-color="white" stop-opacity="0.9"/>
<stop offset="1" stop-color="white" stop-opacity="0.5"/>
</linearGradient>
</defs>
</svg>
